<svg width="18" height="18" viewBox="0 0 18 18" fill="none" xmlns="http://www.w3.org/2000/svg">
<path fill-rule="evenodd" clip-rule="evenodd" d="M14.6 6.8C16.4777 6.8 18 5.27777 18 3.4C18 1.52223 16.4777 0 14.6 0C12.7222 0 11.2 1.52223 11.2 3.4C11.2 5.27777 12.7222 6.8 14.6 6.8Z" fill="#6B3BED"/>
<path fill-rule="evenodd" clip-rule="evenodd" d="M14.6 18C16.4777 18 18 16.4778 18 14.6C18 12.7222 16.4777 11.2 14.6 11.2C12.7222 11.2 11.2 12.7222 11.2 14.6C11.2 16.4778 12.7222 18 14.6 18Z" fill="#6B3BED"/>
<path fill-rule="evenodd" clip-rule="evenodd" d="M3.4 6.8C5.27777 6.8 6.8 5.27777 6.8 3.4C6.8 1.52223 5.27777 0 3.4 0C1.52223 0 0 1.52223 0 3.4C0 5.27777 1.52223 6.8 3.4 6.8Z" fill="#6B3BED"/>
<path fill-rule="evenodd" clip-rule="evenodd" d="M3.4 18C5.27777 18 6.8 16.4778 6.8 14.6C6.8 12.7222 5.27777 11.2 3.4 11.2C1.52223 11.2 0 12.7222 0 14.6C0 16.4778 1.52223 18 3.4 18Z" fill="#6B3BED"/>
</svg>
